<svg xmlns="http://www.w3.org/2000/svg" width="8192" height="8192" version="1.0" viewBox="0 0 6144 6144"><path d="M860.7 55.7c-.4.3-.7 10.6-.7 22.8 0 15.8-.3 22.4-1.2 23.3s-12.7 1.2-46.9 1.2c-35.3 0-45.9.3-46.7 1.2-.6.8-1 9.5-1.1 22.2 0 13.7-.4 21.3-1.1 22s-9.1 1.3-22.6 1.6c-17.6.4-21.6.8-22.4 2-.5.8-1 10.8-1 22.1 0 14.8-.3 21-1.2 22.2-1.2 1.5-5.4 1.7-46.8 1.9l-45.5.3-.5 22.5-.5 22.5-47 .5-47 .5-.6 15.5c-.4 8.5-.7 19.2-.8 23.7l-.1 8.3H385.6c-118 0-141.5.2-142.5 1.4-.8.9-1 20.2-.9 70.2l.3 68.9 23.5.5 23.5.5.5 22.7c.3 12.4.8 22.9 1.1 23.2s31.6.7 69.6.8c56.9.3 69.3.5 70.7 1.7 1.5 1.2 1.6 5.5 1.4 47.5l-.3 46.1-46.5.5c-25.6.3-47.1.9-47.8 1.3-1 .7-1.3 5.7-1.1 23.4.1 12.6-.2 22.8-.7 23.3s-11.1 1.1-23.4 1.2l-22.5.3-.3 70.2c-.2 55.2-.5 70.3-1.5 70.4-.6.1-11.3.4-23.7.8l-22.5.6-.3 92.4c-.1 66.7.1 92.8.9 93.7.9 1.1 6.3 1.4 23.8 1.6l22.6.3v190l-22.5.5c-12.4.3-23.1.9-23.7 1.3-1.7 1.1-1.9 137.2-.3 138.2 1.1.7 802.9.9 803.6.2s.7-137.8-.1-138.5c-.4-.4-10.6-.9-22.8-1.2l-22.2-.5-.3-22.1c-.2-16.8-.6-22.5-1.5-23.3-.9-.7-9.5-1.2-23.8-1.3l-22.4-.3-.3-23.4c-.2-16.4.1-23.8.9-24.7.9-1.1 5.7-1.4 23.4-1.4 19.4 0 22.4-.2 22.9-1.6.3-.9.6-75.3.6-165.5V718h46c44.4 0 46-.1 47-1.9.6-1.3 1-25 1-69.9 0-55.3-.2-68.2-1.3-69.1-.9-.7-9.2-1.2-23.3-1.3l-21.9-.3-.5-22.5c-.3-12.4-.7-22.6-.8-22.8-.1-.1-5.1-.2-11-.2-6 0-16.4-.3-23-.7l-12.2-.6v-21.8c0-11.9-.3-22.4-.6-23.3-.5-1.3-2.4-1.6-10.3-1.6-5.4 0-15.9-.3-23.4-.7l-13.7-.6.2-70.6.3-70.6 22.5-.8c13.1-.5 23-1.3 23.7-1.9 1-.8 1.3-10.9 1.3-46.9V244h22.4c12.4 0 22.7-.4 23-.8.8-1.3 1-185.8.2-187.1-.8-1.2-184.7-1.7-185.9-.4m139.8 93.3v46.5l-23.5.5-23.5.5-.5 47-.5 47-22.5.5c-12.4.3-23.1.9-23.8 1.3-1 .7-1.2 15.3-1.2 69.8 0 38-.2 69.4-.5 70-.4.5-9.8.9-22.5.9-12.6 0-22.1.4-22.5.9-.8 1.4-.9 45.7-.1 47 .5.8 7.8 1.1 23.2 1.1 20.7 0 22.4.1 22.4 1.7.1 1 .1 11 0 22.3 0 11.3.4 21.1.8 21.7.6.9 6.9 1.3 23.7 1.5l23 .3.5 23.5.5 23.5 23.5.5 23.5.5.5 23.5.5 23.5 22.8.2c12.6.1 23.1.4 23.4.6.2.3.5 10.4.5 22.4v21.8l-47.1.3-47.1.2v-22.2c0-12.3-.4-22.9-.8-23.5-.6-1-6.5-1.3-22.8-1.5-12.1-.1-22.6.2-23.2.6-.9.5-1.2 7.2-1.2 23.6v22.9l-22.1.3c-12.2.2-22.5 0-23.1-.3-.6-.4-.9-17.6-.8-46.7.1-44.9 0-46.1-1.9-47.1-1.3-.7-17.5-1.1-47.4-1.1-42.4 0-45.5-.1-46.2-1.7-.3-1-.5-11.2-.4-22.6.1-12-.2-21.2-.7-21.7-.6-.6-29-1.1-70.9-1.2l-70-.3.4-22.7.3-22.8-2.6-1c-1.7-.6-27.3-1-71.4-.9h-68.7l-.5-23.3-.5-23.3-70.5-.5-70.5-.5-.5-23-.5-23-23.5-.5-23.5-.5-.3-22.8c-.2-17.8 0-22.7 1-22.7h141.2c102.5 0 140.2-.3 141.2-1.1 1.1-.9 1.4-5.9 1.4-24V292l46.8-.2 46.7-.3.5-23.5.5-23.5 47.2-.3 47.3-.2.2-23.8.3-23.7 23.7-.3 23.8-.2.2-23.3.3-23.2 45.9-.3c31.9-.1 46.3-.6 47.3-1.3 1-.9 1.3-5.9 1.3-22.9 0-11.9.3-22 .7-22.3.3-.4 21.4-.6 46.7-.5l46.1.3zM526.8 574c.1 24.5 0 45.5-.3 46.7l-.5 2.3h-22.9c-19.9 0-23-.2-23.5-1.6-.8-2.2-.8-90.9.1-91.8.4-.3 11-.5 23.7-.4l23.1.3zm141.2 4.2c.4 22.3-.2 91.3-.7 91.7-.5.3-10.9.4-23.3.1l-22.5-.5.4-45.5c.2-25 .5-45.8.8-46.3.2-.4 10.5-.7 22.9-.7 17.2 0 22.4.3 22.4 1.2m-237.2 68.2c.1 13.2-.2 23.2-.7 23.5s-10.8.5-23 .3l-22.1-.3v-22.8c0-12.5.3-23.1.7-23.5.4-.3 10.6-.5 22.7-.4l22.1.3zm-47 47.9c.2 17 .6 22.9 1.5 23.2.6.2 21.9.6 47.2.8l46 .4.5 23.4.5 23.4h142l.3-23.3c.1-12.7.3-23.3.5-23.4.1-.2 64.1-.5 142.2-.8l142-.5.3-22.7c.2-22.6.3-22.8 2.5-23.3 1.2-.3 11.4-.4 22.7-.3l20.5.3v94l-23 .5-23 .5-.3 22.4c-.2 15.6.1 22.8.9 23.7.9 1.1 5.7 1.4 23.5 1.4H953l-.2 94.2-.3 94.3-23 .5-23 .5-.3 70.7-.2 70.8 23.2.2 23.3.3.3 22.8c.2 16.9.6 22.9 1.5 23.2.6.2 11.3.6 23.7.7l22.5.3v47H859.7l.2-21.3c.2-18.1 0-21.7-1.4-23.8l-1.5-2.4h-93l-.2-23.3-.3-23.2-23.2-.3-23.3-.2-.2-46.8-.3-46.7-22.5-.3c-12.3-.1-22.8-.6-23.1-1-.4-.4-.9-53.6-1-118.2l-.3-117.5 71-.5 70.9-.5.3-23.8.2-23.7H669l-.2 6.2c-.1 3.5-.3 11.7-.3 18.3-.1 6.6-.2 14.4-.3 17.2l-.2 5.3h-45.8c-34.3 0-46.1.3-47 1.2s-1.2 7.5-1.2 23.4c0 19.3-.2 22.3-1.6 22.8-.9.3-11.4.6-23.5.6H527l.2 23.7.3 23.8 46.5.5 46.5.5.5 45.8c.3 28.3.1 46.2-.4 46.8-.6.5-19.4.9-47.3.9H527l.2 23.7.3 23.8 70.5.5 70.5.5.5 46.5.5 46.5 21.8.7c12.1.4 22.5.9 23.3 1.2 1.1.4 1.4 4.6 1.4 23.1v22.5h14.8c8.2 0 19 .3 24.1.7l9.1.6-.2 23.1-.3 23.1h-473v-47l21.5-.2c11.8-.1 22.5-.2 23.7-.3h2.3l.2-118.3.3-118.2 20.5-.3c11.3-.1 21.5 0 22.8.3l2.2.5v45.6c0 29.5.4 46.2 1 47.5 1 1.8 2.3 1.9 23.5 1.9H431v21.9c0 18.6.2 22.2 1.6 23.5 1.3 1.3 4.6 1.6 20.8 1.6 10.7 0 20.7.3 22.5.6l3.1.6.2 22.7.3 22.6 22.6.6c12.4.3 23.1.9 23.8 1.3.8.5 1.1 7.4 1.1 23.2 0 17.2.3 22.4 1.3 22.4 11.3.2 93.1-.1 93.3-.3s.4-10.1.4-22.1c.1-15.4-.2-22.1-1-23.2-1-1.1-8.8-1.4-47.4-1.6l-46.1-.3-.5-23-.5-23-23.2-.3-23.3-.2-.1-19.3c-.1-10.5-.2-21-.3-23.2l-.1-4-23.5-.5c-12.9-.3-23.6-.7-23.7-.8-.2-.1-.3-20.9-.3-46.1 0-25.3-.3-46.6-.6-47.5-.5-1.4-3.6-1.6-23.5-1.6H385v-46h22.3c16 0 22.6-.3 23.5-1.2s1.2-12.8 1.2-47.4c0-41.2-.2-46.3-1.6-46.8-.9-.3-11.4-.6-23.5-.6H385l-.2-23.3-.3-23.2-23-.5-23-.5-.3-46c-.1-25.3 0-46.6.3-47.3.3-1 5.5-1.2 22.7-1l22.3.3zm0 166.4-.3 46.8h-93l-.3-46.8-.2-46.7h94z"/><path d="M860.2 1146.2c-.9.9-1.2 7.5-1.2 23.5v22.3h2.3c1.2 0 11.5.1 22.9.1 11.3.1 21.1-.2 21.7-.6 1.6-.9 1.5-43.7-.1-45.3-1.7-1.7-43.9-1.7-45.6 0"/></svg>